<svg width="20" height="14" viewBox="0 0 20 14" fill="none" xmlns="http://www.w3.org/2000/svg">
<path d="M16.9844 4.98438V3.01562H15.0156V4.98438H16.9844ZM16.9844 7.98438V6.01562H15.0156V7.98438H16.9844ZM13.9844 4.98438V3.01562H12.0156V4.98438H13.9844ZM13.9844 7.98438V6.01562H12.0156V7.98438H13.9844ZM13.9844 12.0156V10H6.01562V12.0156H13.9844ZM4.98438 4.98438V3.01562H3.01562V4.98438H4.98438ZM4.98438 7.98438V6.01562H3.01562V7.98438H4.98438ZM6.01562 6.01562V7.98438H7.98438V6.01562H6.01562ZM6.01562 3.01562V4.98438H7.98438V3.01562H6.01562ZM9.01562 6.01562V7.98438H10.9844V6.01562H9.01562ZM9.01562 3.01562V4.98438H10.9844V3.01562H9.01562ZM18.0156 0.015625C18.5469 0.015625 19 0.21875 19.375 0.625C19.7812 1 19.9844 1.45313 19.9844 1.98438V12.0156C19.9844 12.5469 19.7812 13.0156 19.375 13.4219C19 13.7969 18.5469 13.9844 18.0156 13.9844H1.98438C1.45312 13.9844 0.984375 13.7969 0.578125 13.4219C0.203125 13.0156 0.015625 12.5469 0.015625 12.0156V1.98438C0.015625 1.45313 0.203125 1 0.578125 0.625C0.984375 0.21875 1.45312 0.015625 1.98438 0.015625H18.0156Z" fill="#154580"/>
</svg>
